<?xml version="1.0" encoding="utf-8"?>
<!DOCTYPE svg PUBLIC "-//W3C//DTD SVG 1.1//EN" "http://www.w3.org/Graphics/SVG/1.1/DTD/svg11.dtd">
<svg version="1.1" id="Layer_0_xA0_Image_1_" xmlns="http://www.w3.org/2000/svg" xmlns:xlink="http://www.w3.org/1999/xlink"
	 x="0px" y="0px" viewBox="0 0 629.4911 465.2872" enable-background="new 0 0 629.4911 465.2872" xml:space="preserve">
<g>
	<path d="M448.6068,205.5093c8.0196-6.1543,16.8525-10.874,26.8449-13.1423c19.9749-4.5344,35.8535,2.455,48.752,17.5853
		c13.4274,15.7508,21.2343,34.4289,27.864,53.7097c0.1927,0.5606,0.1255,1.2107,0.2221,2.2993
		c-6.353-4.5364-12.1227-8.9827-18.2169-12.9278c-8.1508-5.2765-16.8785-9.3462-26.6976-10.4677
		c-16.6162-1.8977-29.1708,5.2317-38.5892,18.224c-5.1339,7.082-9.302,14.8641-14.1052,22.6542
		c0.3309-1.5735,0.5531-3.0186,0.942-4.4174c2.9652-10.6624,7.2994-20.6812,13.973-29.5986
		c10.1633-13.5804,26.0656-19.3009,42.4727-14.9237c5.5878,1.4908,10.9795,3.7155,16.4625,5.6
		c1.1826,0.4064,2.3723,0.7919,3.8188,1.2736C521.5013,204.8324,495.1425,184.9755,448.6068,205.5093z"/>
	<path d="M237.9856,226.6275c-13.716-5.6612-25.764-11.8358-35.4772-21.7941c11.6509,6.8911,24.0813,11.7355,37.2407,14.6295
		c19.715,4.3356,39.654,4.4151,59.6132,2.4236c28.7054-2.8642,56.6494-9.4067,84.1222-18.0809
		c0.5916-0.1868,1.2656-0.1122,2.2182,0.5329c-1.1705,0.6486-2.2982,1.3941-3.5178,1.9314
		c-23.3259,10.2762-47.252,18.8343-72.3633,23.4751c-15.5688,2.8772-31.2693,3.4771-47.2022,2.1226
		c-27.9301-2.3745-53.3513,3.589-72.724,25.8865c-0.3162,0.3639-0.767,0.6108-2.0363,0.3028
		c2.9346-3.8936,5.5739-8.0632,8.8845-11.6053c3.5025-3.7474,7.3505-7.334,11.5902-10.1836
		c4.0774-2.7406,8.6855-4.9516,13.3608-6.4705C226.4889,228.2398,231.6472,227.8031,237.9856,226.6275z"/>
	<path d="M244.1604,153.7768c-5.2747-4.462-10.5494-8.924-15.8241-13.3861c0.4206-0.5742,0.8411-1.1483,1.2617-1.7225
		c54.6783,45.1152,118.527,55.0126,186.6721,48.4106c-0.0315,0.5346-0.063,1.0692-0.0944,1.6039
		c-10.9349,1.6603-21.8215,4.1128-32.8167,4.7825c-14.0717,0.8572-28.2618,0.8927-42.3457,0.1842
		c-25.7687-1.2965-50.0551-8.5612-72.7516-20.7818c-17.6863-9.523-35.94-17.432-56.0298-19.815
		c-10.9878-1.3033-22.1205-1.3854-31.6273-1.929c3.8497-2.1525,12.3045-3.2556,30.2313-1.6578
		c10.8147,0.9639,21.502,3.3572,32.2465,5.1083C243.4418,154.3083,243.8011,154.0425,244.1604,153.7768z"/>
	<path d="M210.0506,139.1867c-73.4823-17.0903-140.7248,1.6756-205.9831,35.9583c10.4607-13.8389,67.5327-40.5204,98.7245-46.6639
		C139.6033,121.2307,175.3207,124.8179,210.0506,139.1867z"/>
	<path d="M223.764,125c-12.5366-5.5991-25.2525-9.6211-38.539-12.087c-18.5094-3.4353-37.1508-3.4332-55.731-1.7868
		c-30.7566,2.7253-60.6045,10.0818-89.9683,19.4475c-7.8635,2.5081-15.6512,5.254-23.4737,7.8908
		c-0.1463-0.3439-0.2926-0.6879-0.4389-1.0318c5.1394-2.1094,10.1686-4.5581,15.4373-6.2696
		c23.2018-7.5368,46.2743-15.58,69.7736-22.0624c24.1531-6.6628,48.938-9.8194,74.1102-7.0302
		c17.2426,1.9106,33.0629,7.3273,45.9308,19.5799c0.722,0.6874,1.4397,1.3828,2.1095,2.1199
		C223.2976,124.1258,223.5045,124.5868,223.764,125z"/>
	<path d="M20.0299,205.0169c7.4402-13.5691,17.5337-24.6564,29.6305-33.944c18.7669-14.4088,40.2578-22.3474,63.3699-26.2166
		c18.1052-3.0309,36.3286-4.1169,54.6573-2.3839c0.6345,0.06,1.2591,0.225,1.8855,0.5061
		c-27.7717,1.427-54.5572,7.0972-80.3507,17.531C63.3323,170.9823,40.6576,186.3372,20.0299,205.0169z"/>
	<path d="M516.2744,381.9732c-7.3294-2.0236-14.739-3.7973-21.9724-6.1198c-18.3166-5.8813-33.2437-16.9138-46.8499-30.3213
		c-19.2772-18.9957-40.1534-36.0934-65.4159-46.6355c-7.6948-3.2111-16.2764-4.3062-24.4651-6.3165
		c-1.5061-0.3698-3.0758-0.4807-4.5475-1.1963c11.296-2.4975,21.9502,0.8372,33.2725,4.2733
		c-2.3393-5.1819-4.7976-9.343-6.084-13.8394c-1.2774-4.4648-1.3757-9.267-1.9911-13.9212c0.5171-0.062,1.0342-0.124,1.5513-0.1861
		c0.132,1.9883,0.0339,4.024,0.4333,5.9571c2.6736,12.9394,10.2921,22.3454,20.9916,29.7245
		c10.9354,7.5417,21.6413,15.4164,32.4347,23.1634c1.4519,1.0421,2.8279,2.1899,4.9445,2.8188
		c-1.5347-4.9124-3.0694-9.8248-4.604-14.7372c0.3192-0.1378,0.6385-0.2756,0.9577-0.4134
		c2.5136,4.2704,4.8758,8.6389,7.5658,12.7951c16.4101,25.3545,39.853,41.4115,67.9569,51.3365
		c2.0906,0.7383,3.8504,2.413,5.764,3.6524C516.2169,382.0075,516.2744,381.9732,516.2744,381.9732z"/>
	<path d="M436.2839,199.7706c3.3536-8.9332,10.0659-14.633,18.6549-17.1852c8.0291-2.3858,16.5488-3.1304,24.8618-4.5433
		c1.8258-0.3103,4.7785,0.7086,2.7126-3.1233c52.3936,8.2619,78.9539,42.7678,79.0942,88.4515
		c-0.3457-1.0861-0.7908-2.1515-1.0226-3.2614c-5.7753-27.6606-19.9082-50.2007-43.4656-65.6562
		c-22.4489-14.7283-55.6626-18.7289-79.2568,4.1439C437.3957,199.0491,436.8127,199.3819,436.2839,199.7706z"/>
	<path d="M191.5615,158.8397c-28.2256,3.5522-56.0346,7.9718-81.9483,20.3605c-18.8965,9.034-35.4656,20.9315-48.3086,37.6729
		c-0.5872,0.7654-1.2943,1.4389-2.2685,1.9457c1.934-11.2728,7.4263-20.7091,15.2561-28.7605
		c10.069-10.3541,22.5297-16.8566,36.1301-21.3234C136.8627,160.0508,164.1993,158.7672,191.5615,158.8397z"/>
	<path d="M375.5126,316.6619c-3.0871,0.2284-6.1756,0.4406-9.2612,0.6879c-24.2347,1.9416-46.6842,10.0804-68.5956,19.9573
		c-35.6129,16.053-68.5447,36.7263-100.6677,58.7723c-0.6222,0.427-1.2849,0.7949-2.4118,0.6268
		c0.5968-0.6351,1.1187-1.3678,1.801-1.8913c31.1996-23.9344,63.3215-46.4562,98.8702-63.6114
		c15.2939-7.3806,31.0747-13.5078,47.9526-16.2337C353.9427,313.2346,364.6951,312.9673,375.5126,316.6619z"/>
	<path d="M546.5104,385.2467c-8.463-3.7826-16.0121-7.0988-23.5131-10.5207c-19.567-8.9265-38.6215-18.7773-55.5124-32.2741
		c-10.2275-8.1724-19.5254-17.2052-23.9915-30.026c-3.1204-8.9576-2.4093-17.5565,2.536-26.4843
		c0,5.5659-0.4963,10.4362,0.0909,15.1721c1.9422,15.6648,11.1349,27.1007,22.6117,37.0055
		c14.5011,12.5149,31.0364,21.7837,48.4835,29.3951c12.6284,5.5092,25.4042,10.7556,38.3916,15.3321
		c5.6767,2.0003,12.0694,1.906,18.0967,2.9874c13.2874,2.3839,23.3897,8.8847,27.5972,22.5929
		c-1.9198-2.3461-3.7341-4.7887-5.7775-7.0219c-9.4537-10.3321-21.4696-13.9603-35.1266-13.3838
		c-10.7758,0.4549-20.9676,3.3275-30.9764,7.0759c-1.3456,0.5039-2.7234,0.9216-4.2594,0.9898
		C530.6634,390.1239,538.3984,388.3633,546.5104,385.2467z"/>
	<path d="M535.5512,447.6608c-25.903-22.3054-54.3772-17.5841-83.3271-7.8629c-0.1621-0.4677-0.3243-0.9355-0.4864-1.4032
		c4.2193-1.8291,8.3356-3.9722,12.6868-5.399c4.3616-1.4302,8.9576-2.1456,14.2319-3.3531
		c-0.9402-0.8122-1.2949-1.3592-1.7657-1.4904c-14.1592-3.9478-23.68-13.7068-31.5479-25.3956
		c-10.7039-15.9022-20.5385-38.0788-25.5661-58.7774c0.9825,2.0538,2.0137,4.0858,2.9399,6.1647
		c8.1591,18.3122,17.8748,35.6825,30.8371,51.0944c9.092,10.8101,19.5989,19.9192,32.3135,26.2181
		c2.0957,1.0382,4.758,1.36,7.1443,1.3118c11.4278-0.231,22.8247,0.0787,32.649,6.7413c4.2214,2.8629,7.4969,7.1205,11.2021,10.7444
		C536.4256,446.7228,535.9884,447.1918,535.5512,447.6608z"/>
	<path d="M267.1085,377.3461c30.7974-22.5063,63.9352-39.2322,103.2423-41.8397c1.8937,8.0334-0.3737,14.6611-3.7971,21.0212
		c-6.2727,11.6536-16.433,19.4875-26.9656,26.8582c-4.799,3.3583-9.9217,6.2542-15.3449,8.7957
		c16.2628-13.9599,32.7654-27.5209,39.6268-50.6725c-6.0819,0.8091-11.2674,1.1951-16.321,2.2266
		c-17.049,3.4799-32.9793,10.1266-48.4038,17.9754c-10.0652,5.1217-19.8881,10.7192-29.8273,16.0895
		c-0.5235,0.2829-1.1186,0.4334-1.6804,0.6456C267.4612,378.0794,267.2848,377.7127,267.1085,377.3461z"/>
	<path d="M434.8653,206.1156c-17.4685,16.5681-29.8346,35.583-29.973,60.7094c5.8644-21.1804,18.8301-36.7507,37.4305-48.0843
		c-22.0576,20.4572-34.2811,45.3728-34.7667,75.8186c-8.9176-15.3477-12.8635-31.1279-6.8028-48.2244
		C407.0121,228.6796,419.7907,216.4762,434.8653,206.1156z"/>
	<path d="M221.1109,71.8463c25.023,37.8291,52.3639,73.6344,90.1302,100.0707C265.0143,153.2323,239.6102,115.6954,221.1109,71.8463
		z"/>
	<path d="M361.1223,302.3739c17.4218-2.848,38.691,9.7935,41.989,25.2862c1.1783,5.5352,0.4094,11.547,0.1231,17.3211
		c-1.3926,28.0887,4.3132,53.6482,26.1655,73.3569c3.6468,3.2891,8.0916,5.6933,12.286,8.5881
		c-9.411,0.2824-24.0093-11.1-31.7779-24.5066c-7.0816-12.2212-9.043-25.8416-10.6051-40.1054
		c-1.1626,0.8615-1.7719,1.313-3.0634,2.2701c3.7507-14.397,6.5862-28.2589-0.8424-41.4536
		C388.0049,310.0006,374.7138,305.7962,361.1223,302.3739z"/>
	<path d="M353.9579,280.0786c5.2767-43.6181,33.0622-68.8699,70.585-86.1756c-9.3291,8.165-19.2075,15.7947-27.8333,24.6451
		c-8.6776,8.9035-16.8303,18.5238-23.8854,28.7463C365.6952,257.6238,360.1947,269.0772,353.9579,280.0786z"/>
	<path d="M363.5402,202.715c-40.954,14.2832-87.7994,8.6236-117.9585-27.3174c16.8181,12.4651,35.498,20.7079,55.8819,25.035
		C321.8402,204.7582,342.4136,204.4501,363.5402,202.715z"/>
	<path d="M283.8482,89.4026c8.4908,46.9706,41.7071,71.4552,81.643,90.0184c-22.5326-4.33-42.7697-13.1085-58.6422-30.072
		C291.1133,132.5318,284.8745,111.9161,283.8482,89.4026z"/>
	<path d="M421.1487,147.626c-2.5981-3.1791-4.7661-6.8826-7.8784-9.4347c-7.9483-6.5178-19.0399-6.4292-29.4402-0.2273
		c-3.5638,2.1252-7.0228,4.4712-10.3109,7.0008c-3.1145,2.3961-5.9423,5.165-9.1961,7.3018
		c10.3665-13.1286,21.0277-25.7996,40.7985-22.6926c0.1105-0.3365,0.221-0.6729,0.3315-1.0094
		c-1.2162-1.1146-2.3117-2.4097-3.6672-3.3159c-13.6774-9.1438-27.5262-7.3772-40.9903,0.1629
		c-6.6184,3.7065-12.5641,8.6142-18.9453,12.8306c8.8891-10.2282,18.4449-19.7562,31.5726-24.544
		c10.2326-3.732,20.0226-2.4473,28.5631,4.6916c2.7873,2.3299,5.5673,4.9,7.5769,7.8817
		c4.5028,6.6812,8.5199,13.6898,12.7347,20.565C421.9147,147.0997,421.5317,147.3629,421.1487,147.626z"/>
	<path d="M234.4789,384.1736c17.7207-13.8537,36.704-25.7386,56.6566-36.0728c16.7292-8.6647,34.0394-15.9023,52.6724-19.3182
		c7.3591-1.3491,14.8746-1.845,22.3189-2.7293c0.0871,0.582,0.1743,1.164,0.2614,1.746
		c-6.2882,1.6343-12.6071,3.1599-18.8596,4.9207c-38.68,10.8928-74.6505,27.7018-108.246,49.6856
		c-1.3642,0.8926-2.9018,1.5201-4.3586,2.2712C234.7752,384.5094,234.6268,384.3417,234.4789,384.1736z"/>
	<path d="M295.6525,215.1478c-0.066,0.0482-0.3177,0.3903-0.5933,0.4108c-23.2876,1.7281-46.69,3.2142-68.44-7.4755
		c-5.8528-2.8766-10.3288-8.5785-15.3618-13.0676c-0.6169-0.5502-0.7665-1.6243-1.4301-3.1308
		c18.6711,14.4528,43.3801,22.7792,58.0086,19.6239c-6.9608-4.4292-13.8967-8.4216-20.3588-13.0723
		c-6.5336-4.7022-11.5124-10.8347-13.5828-19.0042c7.3633,10.1142,16.5409,18.17,27.9455,23.0606
		C272.8662,207.2211,284.3197,210.9533,295.6525,215.1478z"/>
	<path d="M203.3082,165.9125c-7.128,2.6203-14.2981,5.1322-21.3755,7.8828c-16.4498,6.3932-32.4394,13.6991-47.1522,23.6074
		c-10.7325,7.2277-20.2024,15.6106-26.6518,27.1615c-0.9271-5.444,1.2084-10.0419,3.7506-14.3756
		c6.5634-11.1888,16.8286-18.2506,27.981-24.1294c18.3668-9.6816,38.1394-15.369,58.2404-20.06
		c1.5998-0.3734,3.2137-0.6865,4.821-1.0276C203.0506,165.2852,203.1794,165.5989,203.3082,165.9125z"/>
	<path d="M223.6927,168.3945c-31.7383,16.7988-60.3786,36.5095-74.5652,71.8615c-0.0365-0.8276-0.1517-1.6612-0.0893-2.4813
		c0.0753-0.9899,0.2927-1.9698,0.4632-2.9515c4.0533-23.3354,17.7452-39.875,37.7595-51.1048
		c10.6235-5.9607,22.3478-9.9627,33.5958-14.8008C221.7178,168.5472,222.7435,168.5598,223.6927,168.3945z"/>
	<path d="M371.1674,269.0859c6.0912-27.7116,24.7296-45.5527,47.9038-60.0227c-20.7083,19.3429-32.5008,41.954-26.4175,71.1715
		c-0.4742,0.0692-0.9484,0.1384-1.4225,0.2076c-1.4888-5.5884-3.5505-11.101-4.3042-16.7869
		c-0.7432-5.6066-0.1622-11.3887-0.1622-17.5034C379.5169,252.4838,375.3749,260.8181,371.1674,269.0859z"/>
	<path d="M236.2513,131.4132c-18.8891-25.4156-36.4679-52.0594-64.7621-69.26C194.0508,63.0905,228.1738,99.5392,236.2513,131.4132z
		"/>
	<path d="M454.8213,422.746c-32.8228-15.2645-50.4574-43.7914-46.331-82.508C414.5656,373.0295,427.4988,401.9229,454.8213,422.746z
		"/>
	<path d="M248.2164,72.5424c14.8914,23.5503,29.7829,47.1006,44.6743,70.6509C270.2711,124.5202,251.85,103.1976,248.2164,72.5424z"
		/>
	<path d="M355.3626,223.5343c-10.8681,8.015-20.3593,17.2244-27.3696,28.8081c-6.9128,11.4225-10.3454,23.9898-11.9284,38.0983
		C306.323,264.0959,318.7045,236.2086,355.3626,223.5343z"/>
	<path d="M434.1214,81.9788c0.4532-3.4755,0.5778-7.033,1.42-10.4116c2.7627-11.0828,5.138-22.3323,8.971-33.0497
		c2.0469-5.7233,6.7762-10.4893,10.3079-15.6785c1.3018-1.9128,2.8607-3.6859,3.9196-5.7218
		c2.5193-4.844,3.511-9.7059-1.4816-14.1107c6.6965,0.4488,7.8855,2.5348,7.4532,12.4611
		c5.1427-0.733,10.2872-1.4662,15.4316-2.1994c0.2187,0.4597,0.4374,0.9193,0.656,1.379
		c-14.2701,5.0208-24.063,14.8996-31.4068,27.5508C442.1717,54.6368,438.2398,68.2485,434.1214,81.9788z"/>
	<path d="M463.5302,280.7159c-1.9252,27.5443,12.2646,47.0585,31.8304,63.8019c4.4085,3.7726,9.2483,7.0406,13.8814,10.5517
		c1.0007,0.7584,1.9662,1.5632,2.4126,3.1904c-3.6113-2.1522-7.2921-4.1967-10.8217-6.4753
		c-14.4397-9.3217-28.4707-19.1258-37.4458-34.3871c-6.1732-10.4969-7.5262-21.4942-3.0082-32.9813
		c0.564-1.434,1.3796-2.769,2.0786-4.1498C462.8151,280.4162,463.1727,280.566,463.5302,280.7159z"/>
	<path d="M451.7402,157.4086c-3.8315-4.4892-8.0807-8.689-11.4245-13.516c-17.8203-25.7246-24.0062-54.0113-18.0688-84.8569
		c0.4994-2.5943,0.6718-5.2914,0.6528-7.9383c-0.0575-8.0207-3.6458-13.6297-11.509-16.1495
		c-1.1064-0.3546-2.1837-0.8017-3.2644-1.2313c-0.1164-0.0463-0.1651-0.2627-0.2452-0.4001
		c9.5043-1.3209,15.3549,2.5788,19.3098,13.2653c1.3402-2.1885,2.5042-4.0894,3.6682-5.9902
		c0.1519,0.0602,0.3038,0.1203,0.4558,0.1805c-1.275,4.7094-2.6628,9.3916-3.8069,14.1326
		c-8.6637,35.9001-0.1345,68.1021,21.0608,97.5722c1.1425,1.5886,2.0604,3.3389,3.0828,5.0139
		C451.6513,157.4908,451.7402,157.4086,451.7402,157.4086z"/>
	<path d="M477.3186,227.1939c-3.4516,1.4517-6.8489,3.0529-10.3636,4.3309c-24.3244,8.845-37.7505,26.2296-40.1785,51.8725
		c-0.6996,7.3885-0.1073,14.8993-0.4892,22.395c-3.1928-7.0086-3.731-14.5065-4.064-22.0017
		c-1.1749-26.4452,11.8608-44.9594,37.2709-52.6274c5.8356-1.761,11.9401-2.6313,17.9208-3.9116L477.3186,227.1939z"/>
	<path d="M315.7325,235.8313c-17.7678,14.606-31.9272,31.7535-38.024,55.3029
		C270.4871,268.1811,285.0769,245.1379,315.7325,235.8313z"/>
	<path d="M335.3518,86.0478c16.4838-12.6803,32.1879-26.6811,53.4406-31.3855c10.8746-2.4071,19.9428,3.614,22.5999,15.3169
		c-12.7012-12.4852-26.422-7.7401-39.4465-2.2914c-10.6652,4.4618-20.5612,10.7674-30.7738,16.3006
		c-1.7328,0.9388-3.3428,2.1044-5.0096,3.1652C335.8923,86.7851,335.622,86.4165,335.3518,86.0478z"/>
	<path d="M371.8696,91.795c5.9346-3.8188,12.0113-3.8322,18.1919-1.5783c9.6413,3.516,16.89,10.4153,22.2347,18.6092
		c8.3296,12.7697,15.4545,26.3255,23.0597,39.5656c0.2089,0.3636,0.0724,0.9256-0.5082,1.7199
		c-2.8972-4.8453-5.4203-9.9682-8.7673-14.4798c-7.6077-10.2546-15.0757-20.7023-23.628-30.1404
		C394.567,96.7893,384.3154,91.6278,371.8696,91.795z"/>
	<path d="M417.8603,53.1573c-17.1447-10.9531-34.4072-6.1769-51.4926-2.0768c-8.6261,2.07-17.0067,5.1631-25.869,6.9604
		c6.3851-2.7302,12.7082-5.618,19.1682-8.1578c13.6306-5.3589,27.3681-10.422,42.4019-9.5656
		c6.7806,0.3862,12.1378,3.2095,15.1639,9.5751C417.6183,50.7037,417.5962,51.7086,417.8603,53.1573z"/>
	<path d="M408.1217,85.9749c-15.171-8.335-29.3004-4.0607-42.9038,3.0963c-8.0396,4.2298-15.4651,9.6268-23.291,14.3824
		c8.1306-8.8186,17.2184-16.5602,27.7098-22.5404c6.5433-3.7297,13.451-6.2466,21.2788-5.8368
		C398.8468,75.4915,403.7679,80.1915,408.1217,85.9749z"/>
	<path d="M514.1332,224.2948c-19.9303-12.7278-40.31-16.7801-61.7483-3.5753C470.7686,200.075,495.867,201.0122,514.1332,224.2948z"
		/>
	<path d="M382.3598,104.0192c-11.0782,1.5075-21.378,4.7913-30.418,10.7971c-8.8726,5.8945-17.1325,12.7113-25.0284,18.6474
		C335.3683,112.377,368.2074,94.2876,382.3598,104.0192z"/>
	<path d="M257.9496,272.3221c0.4267-4.0984,0.8899-8.5466,1.3531-12.9948c-0.2707-0.2665-0.5414-0.533-0.8121-0.7994
		c-2.8616,3.1732-5.9207,6.1936-8.5303,9.5621c-2.6897,3.4718-4.9416,7.2827-7.8481,11.6391
		c1.6511-17.9444,22.0243-35.9828,42.5886-38.9451c-5.2401,4.2217-11.5756,8.0348-16.1352,13.3666
		C264.1048,259.3669,261.4544,266.1314,257.9496,272.3221z"/>
	<path d="M436.008,297.3847c-1.0276-12.4548-1.1698-24.6753,4.2469-36.3008c4.6263-9.9291,12.3155-15.7591,23.2662-17.9082
		C445.1874,256.7191,439.043,276.263,436.008,297.3847z"/>
	<path d="M347.0582,275.4304c-5.1973-21.699,9.6537-47.3804,31.2689-60.9198c-6.3937,8.8104-13.5576,18.0068-19.9672,27.7018
		C351.7558,252.2015,348.0121,263.3837,347.0582,275.4304z"/>
	<path d="M257.5964,238.3666c-19.3577,7.3743-33.8157,20.4578-45.3514,38.2762
		C215.4775,255.0993,239.3311,235.1591,257.5964,238.3666z"/>
	<path d="M624.4953,399.3206c-11.8028-22.0625-31.6941-24.2756-53.4532-23.3966c3.0159-0.6571,6.0185-1.7948,9.0501-1.8783
		c8.092-0.2227,16.3296-0.8917,24.2628,0.2823c10.2388,1.5152,16.6826,8.3293,19.3995,18.4387
		c0.502,1.8675,1.1101,3.7064,1.6692,5.5586C625.1143,398.657,624.8047,398.9888,624.4953,399.3206z"/>
	<path d="M153.9735,87.6146c21.3242-5.4671,41.0255-0.1598,49.9635,13.7841C187.8485,94.8069,171.4652,89.3214,153.9735,87.6146z"/>
	<path d="M296.5144,382.7225c3.5244-14.8039,28.5075-31.4235,52.2298-33.0779c-9.576,4.8418-19.3654,8.892-28.1669,14.4944
		C311.7496,369.7581,303.9072,376.9252,296.5144,382.7225z"/>
	<path d="M169.8883,248.498c6.0484-24.681,24.4645-33.6693,45.6521-24.913C195.3992,224.2007,179.8611,231.3671,169.8883,248.498z"
		/>
	<path d="M379.8423,165.0342c16.9959-15.1194,33.3539-13.0751,41.7769,6.0591
		C408.2988,160.2619,394.2942,160.9807,379.8423,165.0342z"/>
	<path d="M381.0281,334.239c2.7614,7.1867,2.2793,14.0731-0.4102,20.9316c-4.6105,11.7574-13.6226,19.9326-22.8711,27.8824
		c-2.2321,1.9187-4.7149,3.5457-7.7095,4.6661c4.5639-5.0231,9.475-9.7795,13.5965-15.1427
		c4.3378-5.6447,8.6894-11.5195,11.613-17.9412C378.0718,348.4304,379.085,341.4007,381.0281,334.239z"/>
	<path d="M371.8076,156.5141c5.8206-4.8197,11.1816-10.3943,17.5688-14.2834c9.7451-5.9337,19.4871-2.4642,25.8099,8.9988
		c-16.9109-11.3165-29.5701-2.3943-42.1871,6.7525C372.602,157.4927,372.2048,157.0034,371.8076,156.5141z"/>
	<path d="M306.6149,392.3526c6.0224-19.0829,19.9157-28.7141,38.8334-32.2321
		C330.5916,368.5393,317.4838,379.0486,306.6149,392.3526z"/>
	<path d="M372.8544,385.0328c12.9266-16.2704,19.8427-34.3038,17.0226-55.412C399.215,346.843,391.5376,370.8432,372.8544,385.0328z
		"/>
	<path d="M431.1724,24.9231c-10.5662-7.7201-21.6368-4.276-32.5978-1.6476c-4.6316,1.1106-9.1312,2.7712-13.834,3.7389
		c11.5-5.9439,22.9356-12.1657,36.4496-11.9342C427.8293,15.1939,431.155,18.5959,431.1724,24.9231z"/>
	<path d="M551.5361,440.8232c-5.5461-11.9394-15.4624-13.8894-25.8179-14.5412c-6.6774-0.4203-13.4028-0.079-20.1066-0.079
		c-0.0057-0.5812-0.0114-1.1624-0.017-1.7436c9.3599-0.3618,18.7251-1.0663,28.0774-0.9248
		c4.0034,0.0605,8.1954,1.392,11.9163,3.0245C550.5744,428.7465,552.486,433.5061,551.5361,440.8232z"/>
	<path d="M299.668,291.6826c-6.3559-10.8284-3.0219-31.4181,7.5094-38.8424C304.6622,265.8501,302.0584,279.3183,299.668,291.6826z"
		/>
	<path d="M561.9015,428.0091c-3.6265-2.5228-7.5059-4.7563-10.8102-7.6472c-3.5162-3.0762-3.8271-7.3061-1.3088-11.2756
		c3.3581-5.2931,8.3547-8.6333,13.003-11.0473c-2.2811,4.6193-5.4526,9.438-7.0688,14.7315
		c-1.9017,6.229,3.8481,9.9514,7.2845,14.2955C562.6346,427.3804,562.2681,427.6947,561.9015,428.0091z"/>
	<path d="M349.2321,150.2903c5.4544-16.5979,22.1625-26.7818,34.6541-23.9418
		C368.5852,130.1418,358.3177,139.3912,349.2321,150.2903z"/>
	<path d="M242.7496,204.3107c-15.3207-2.5268-22.9017-11.6841-20.519-23.9105c2.7339,4.2639,5.1208,9.0009,8.466,12.9199
		C234.0717,197.2742,238.3976,200.4166,242.7496,204.3107z"/>
	<path d="M445.3899,26.5946c-0.7704-13.7354-0.9532-14.0272-12.8665-20.6059c4.0989,0.8529,8.3831,1.2164,12.2505,2.6806
		c5.0059,1.8953,6.2129,5.4,4.2788,10.4731C448.071,21.7177,446.6257,24.1162,445.3899,26.5946z"/>
	<path d="M495.2314,438.1155c-6.4459,10.8351-6.3619,11.94,2.282,24.1653c-4.6778-1.9647-10.6156-7.2208-11.782-11.6192
		c-0.5769-2.1757-0.1616-5.5307,1.2239-7.0971C489.0675,441.1764,492.4108,439.8771,495.2314,438.1155z"/>
	<path d="M477.4149,227.2516c1.3579-0.2388,2.7159-0.4777,4.0739-0.7165c0.0269,0.2196,0.0539,0.4392,0.0808,0.6588
		c-1.4171,0-2.834,0-4.2511,0C477.3186,227.1939,477.4149,227.2516,477.4149,227.2516z"/>
	<path d="M234.9241,384.6767c-1.0669,0.8176-2.1338,1.6352-3.2007,2.4529c-0.1777-0.2718-0.3555-0.5435-0.5332-0.8153
		c1.0962-0.7136,2.1924-1.4271,3.2887-2.1407C234.6268,384.3417,234.7752,384.5094,234.9241,384.6767z"/>
	<path d="M451.6513,157.4908c0.6111,0.5741,1.2222,1.1483,1.8333,1.7225c-0.1918,0.1458-0.3835,0.2915-0.5753,0.4372
		c-0.3897-0.7473-0.7794-1.4946-1.1691-2.2419L451.6513,157.4908z"/>
	<path d="M516.2169,382.0075c0.811-0.3465,1.6218-0.6929,2.4327-1.0393c0.0836,0.265,0.1672,0.5299,0.2509,0.7949
		c-0.8754,0.07-1.7508,0.1401-2.6262,0.2101C516.2744,381.9732,516.2169,382.0075,516.2169,382.0075z"/>
</g>
</svg>
